<svg id="_图层_1" data-name="图层 1" xmlns="http://www.w3.org/2000/svg" viewBox="0 0 873 295.2">
 <defs>
 <style>
 .cls-1 {
 stroke-width: 0px;
 }
 </style>
 </defs>
 <path class="cls-1" d="m872.79,260.54c-.09,19.5-20.93,35.54-40.39,34.19-17.56-1.22-29.88-13.37-32.96-27.58-.35-1.6-.25-3.26-.25-4.89.03-26.66-.17-53.33,0-79.99.09-14.15-.07-28.29,0-42.44.04-9.41-6.48-15.13-14.63-12.48-1.78.58-3.55,1.88-4.8,3.31-7.92,8.99-16.21,17.72-23.42,27.27-18.38,24.34-51.37,24.07-69.2,2.4-8.34-10.15-17.63-19.52-26.49-29.24-4.26-4.67-8.74-5.97-13.76-4.01-4.87,1.91-7.1,5.55-7.16,11.87-.33,39.49.28,78.98,0,118.48-.12,16.73-9.91,30.15-25.71,35.44-20.43,6.83-45.56-4.98-47.26-30.24-.97-14.43-.09-28.98,0-43.47.31-52.82-.75-105.65,0-158.47.39-27.46,22.94-56.49,53.33-59.45,17.91-1.75,32.47,4.62,43.4,18.34,17.4,21.83,34.15,44.17,51.12,66.35,3.86,5.04,7.62,5.47,11.68.59,15.54-18.66,30.95-37.44,46.43-56.15,7.75-9.36,15.43-18.69,26.76-24.24,27.24-13.32,60.19.2,69.06,29.14,2.53,8.27,4.11,17.2,4.23,25.85.46,32.48,0,97.46,0,97.46,0,0,.15,67.98,0,101.97Z"/>
 <path class="cls-1" d="m95.03,294.34c-17.16,0-34.32.12-51.48,0-17.07-.12-30.94-12.94-32.61-30.62-1.46-15.44,9.27-31.84,25.75-35.38,2.89-.62,5.9-1.04,8.86-1.05,31.99-.07,63.99.06,95.98,0,13.45-.03,24.06-9.99,24.26-22.53.21-12.7-10.28-23.36-23.2-23.43-15-.08-29.99.06-44.99-.04-23.28-.15-44.82-6.1-63.36-20.58C15,145.69,3.73,126,.72,101.57c-3.1-25.09,3.88-47.19,19.46-66.59,13.33-16.59,31-26.82,51.62-31.52,8.33-1.9,17.03-2.9,25.58-3.02,26.32-.38,52.65-.14,78.98-.14,16.61,0,31.03,12.52,33.52,28.19,3.17,19.92-10.85,35.37-24.71,38.2-3.55.73-7.24,1.11-10.86,1.12-25.99.07-51.98-.06-77.97,0-10.8.02-19.48,4.06-24.05,14.4-6.89,15.59,4.74,31.51,23.25,31.78,16.82.25,33.67-.33,50.47.43,25.8,1.16,48.17,10.69,66.18,29.63,18.94,19.92,26.63,44.1,23.3,70.77-5.09,40.79-33.54,69.9-73.27,77.12-15.53,2.82-31.77,1.81-47.69,2.39-6.49.23-13,0-19.49,0,0-.01,0,.01,0,0Z"/>
 <path class="cls-1" d="m398.92,0c24.6.21,39.47,13.51,48.88,35.23,20.57,47.47,41.66,94.72,62.44,142.1,9.74,22.2,19.53,44.39,28.83,66.78,10.58,25.44-9.33,52.32-36.81,50.42-17.65-1.22-27.9-11.24-34.63-26.75-19.82-45.74-39.99-91.32-60.03-136.96-1.85-4.22-4.94-7.46-9.62-7.32-4.5.14-7.08,3.6-8.85,7.65-20.43,46.82-40.93,93.61-61.37,140.43-6.16,14.11-23.56,25.11-37.34,23.45-19.72-2.38-33.24-14.13-35.28-32.29-.72-6.43.39-13.78,2.94-19.74,16.71-39.04,34.08-77.79,51.16-116.67,13.92-31.69,27.74-63.42,41.61-95.14C359.66,11.09,377.16-.27,398.92,0Z"/>
 <path class="cls-1" d="m398.35,293.32c-19.75,0-34.53-14.8-34.56-34.58-.02-18.61,15.86-34.8,34.7-34.23,19.56.59,34.83,14.69,35.01,34.74.18,19.91-16.81,34.98-35.16,34.08Z"/>
</svg>
